<svg width="169" height="20" viewBox="0 0 169 20" fill="none" xmlns="http://www.w3.org/2000/svg">
<path d="M163.773 10.398L158.148 16.023C158.096 16.0752 158.034 16.1167 157.965 16.145C157.897 16.1733 157.824 16.1878 157.75 16.1878C157.676 16.1878 157.603 16.1733 157.535 16.145C157.466 16.1167 157.404 16.0752 157.352 16.023C157.3 15.9707 157.258 15.9087 157.23 15.8404C157.202 15.7721 157.187 15.6989 157.187 15.625C157.187 15.5511 157.202 15.4779 157.23 15.4096C157.258 15.3413 157.3 15.2793 157.352 15.227L162.58 10L157.352 4.77298C157.246 4.66743 157.187 4.52427 157.187 4.37501C157.187 4.22574 157.246 4.08259 157.352 3.97704C157.458 3.87149 157.601 3.81219 157.75 3.81219C157.899 3.81219 158.042 3.87149 158.148 3.97704L163.773 9.60204C163.825 9.65428 163.867 9.71632 163.895 9.7846C163.923 9.85289 163.938 9.92609 163.938 10C163.938 10.0739 163.923 10.1471 163.895 10.2154C163.867 10.2837 163.825 10.3457 163.773 10.398Z" fill="white"/>
</svg>
