<svg width="64" height="32" viewBox="0 0 64 32" fill="none" xmlns="http://www.w3.org/2000/svg">
<path d="M63.5 28C63.5 29.933 61.933 31.5 60 31.5L0.863628 31.5L0.863632 0.500001L60 0.500005C61.933 0.500006 63.5 2.06701 63.5 4.00001L63.5 28Z" fill="#F1F1F5"/>
<path d="M63.5 28C63.5 29.933 61.933 31.5 60 31.5L0.863628 31.5L0.863632 0.500001L60 0.500005C61.933 0.500006 63.5 2.06701 63.5 4.00001L63.5 28Z" stroke="#DEDEDE"/>
<path fill-rule="evenodd" clip-rule="evenodd" d="M25 22C25 22.2652 24.8946 22.5196 24.7071 22.7071C24.5196 22.8946 24.2652 23 24 23L12 23C11.7348 23 11.4804 22.8946 11.2929 22.7071C11.1054 22.5196 11 22.2652 11 22C11 21.7348 11.1054 21.4804 11.2929 21.2929C11.4804 21.1054 11.7348 21 12 21L24 21C24.2652 21 24.5196 21.1054 24.7071 21.2929C24.8946 21.4804 25 21.7348 25 22ZM25 18C25 18.2652 24.8946 18.5196 24.7071 18.7071C24.5196 18.8946 24.2652 19 24 19L12 19C11.7348 19 11.4804 18.8946 11.2929 18.7071C11.1054 18.5196 11 18.2652 11 18C11 17.7348 11.1054 17.4804 11.2929 17.2929C11.4804 17.1054 11.7348 17 12 17L24 17C24.2652 17 24.5196 17.1054 24.7071 17.2929C24.8946 17.4804 25 17.7348 25 18ZM25 14C25 14.2652 24.8946 14.5196 24.7071 14.7071C24.5196 14.8946 24.2652 15 24 15L12 15C11.7348 15 11.4804 14.8946 11.2929 14.7071C11.1054 14.5196 11 14.2652 11 14C11 13.7348 11.1054 13.4804 11.2929 13.2929C11.4804 13.1054 11.7348 13 12 13L24 13C24.2652 13 24.5196 13.1054 24.7071 13.2929C24.8946 13.4804 25 13.7348 25 14ZM25 10C25 10.2652 24.8946 10.5196 24.7071 10.7071C24.5196 10.8946 24.2652 11 24 11L12 11C11.7348 11 11.4804 10.8946 11.2929 10.7071C11.1054 10.5196 11 10.2652 11 10C11 9.73478 11.1054 9.48043 11.2929 9.29289C11.4804 9.10536 11.7348 9 12 9L24 9C24.2652 9 24.5196 9.10536 24.7071 9.29289C24.8946 9.48043 25 9.73478 25 10Z" fill="#696974"/>
<path d="M32.9988 21V10.8182L34.535 10.8182V19.6776L39.1486 19.6776V21L32.9988 21ZM41.2818 21V13.3636L42.7683 13.3636V21L41.2818 21ZM42.0325 12.1854C41.774 12.1854 41.5519 12.0992 41.3663 11.9268C41.184 11.7512 41.0929 11.5424 41.0929 11.3004C41.0929 11.0552 41.184 10.8464 41.3663 10.674C41.5519 10.4983 41.774 10.4105 42.0325 10.4105C42.291 10.4105 42.5114 10.4983 42.6937 10.674C42.8793 10.8464 42.9721 11.0552 42.9721 11.3004C42.9721 11.5424 42.8793 11.7512 42.6937 11.9268C42.5114 12.0992 42.291 12.1854 42.0325 12.1854ZM50.9904 15.228L49.6431 15.4666C49.5868 15.2943 49.4973 15.1302 49.3746 14.9744C49.2553 14.8187 49.0929 14.6911 48.8874 14.5916C48.6819 14.4922 48.4251 14.4425 48.1168 14.4425C47.6959 14.4425 47.3446 14.5369 47.0629 14.7259C46.7811 14.9115 46.6403 15.1518 46.6403 15.4467C46.6403 15.7019 46.7347 15.9074 46.9237 16.0632C47.1126 16.219 47.4175 16.3466 47.8384 16.446L49.0515 16.7244C49.7541 16.8868 50.2778 17.1371 50.6225 17.4751C50.9672 17.8132 51.1396 18.2524 51.1396 18.7926C51.1396 19.25 51.007 19.6577 50.7418 20.0156C50.48 20.3703 50.1138 20.6487 49.6431 20.8509C49.1758 21.053 48.6339 21.1541 48.0174 21.1541C47.1623 21.1541 46.4646 20.9718 45.9244 20.6072C45.3841 20.2393 45.0527 19.7173 44.93 19.0412L46.3668 18.8224C46.4563 19.197 46.6403 19.4804 46.9187 19.6726C47.1971 19.8615 47.56 19.956 48.0075 19.956C48.4947 19.956 48.8841 19.8549 49.1758 19.6527C49.4674 19.4472 49.6133 19.197 49.6133 18.902C49.6133 18.6634 49.5238 18.4628 49.3448 18.3004C49.1692 18.138 48.899 18.0154 48.5344 17.9325L47.2418 17.6491C46.5292 17.4867 46.0022 17.2282 45.6609 16.8736C45.3228 16.5189 45.1538 16.0698 45.1538 15.5263C45.1538 15.0755 45.2797 14.6811 45.5316 14.343C45.7835 14.005 46.1315 13.7415 46.5756 13.5526C47.0198 13.3603 47.5285 13.2642 48.1019 13.2642C48.9272 13.2642 49.5768 13.4432 50.0508 13.8011C50.5247 14.1558 50.838 14.6314 50.9904 15.228ZM56.8386 13.3636V14.5568L52.6674 14.5568V13.3636L56.8386 13.3636ZM53.786 11.5341L55.2726 11.5341V18.7578C55.2726 19.0462 55.3156 19.2633 55.4018 19.4091C55.488 19.5516 55.599 19.6494 55.7349 19.7024C55.8741 19.7521 56.0249 19.777 56.1873 19.777C56.3066 19.777 56.411 19.7687 56.5005 19.7521C56.59 19.7356 56.6596 19.7223 56.7093 19.7124L56.9778 20.9403C56.8916 20.9735 56.769 21.0066 56.6099 21.0398C56.4508 21.0762 56.252 21.0961 56.0133 21.0994C55.6222 21.1061 55.2576 21.0365 54.9196 20.8906C54.5815 20.7448 54.3081 20.5194 54.0993 20.2145C53.8904 19.9096 53.786 19.5268 53.786 19.0661V11.5341Z" fill="#171725"/>
</svg>
