<svg width="13" height="14" viewBox="0 0 13 14" fill="none" xmlns="http://www.w3.org/2000/svg">
<path d="M10 9.00005C9.66646 8.99994 9.33628 9.06676 9.02903 9.19656C8.72178 9.32635 8.4437 9.51647 8.21125 9.75567L5.33 7.9038C5.55664 7.32261 5.55664 6.67749 5.33 6.0963L8.21125 4.24442C8.64403 4.68775 9.22601 4.95458 9.84436 4.99319C10.4627 5.0318 11.0734 4.83944 11.5579 4.45339C12.0425 4.06735 12.3665 3.51513 12.467 2.90379C12.5676 2.29246 12.4375 1.66557 12.1021 1.14466C11.7667 0.623745 11.2499 0.245928 10.6517 0.0844544C10.0536 -0.0770192 9.41681 -0.0106452 8.86483 0.270708C8.31286 0.552061 7.88501 1.02835 7.66425 1.60723C7.44349 2.18611 7.44554 2.82634 7.67 3.4038L4.78875 5.25567C4.44179 4.89947 3.99649 4.65483 3.50977 4.55301C3.02305 4.4512 2.51703 4.49685 2.05639 4.68411C1.59575 4.87138 1.20141 5.19176 0.923796 5.6043C0.64618 6.01684 0.497894 6.5028 0.497894 7.00005C0.497894 7.4973 0.64618 7.98326 0.923796 8.3958C1.20141 8.80834 1.59575 9.12872 2.05639 9.31599C2.51703 9.50325 3.02305 9.5489 3.50977 9.44708C3.99649 9.34527 4.44179 9.10063 4.78875 8.74442L7.67 10.5963C7.47698 11.0941 7.44842 11.6407 7.58849 12.1559C7.72857 12.6712 8.02993 13.128 8.44844 13.4596C8.86695 13.7912 9.38062 13.98 9.91424 13.9985C10.4479 14.0171 10.9734 13.8642 11.4139 13.5625C11.8544 13.2607 12.1866 12.8258 12.3621 12.3215C12.5376 11.8173 12.5469 11.27 12.3889 10.76C12.2308 10.25 11.9137 9.80401 11.4838 9.48731C11.0539 9.1706 10.5339 8.99985 10 9.00005ZM10 1.00005C10.2967 1.00005 10.5867 1.08802 10.8334 1.25284C11.08 1.41767 11.2723 1.65193 11.3858 1.92602C11.4993 2.20011 11.5291 2.50171 11.4712 2.79268C11.4133 3.08366 11.2704 3.35093 11.0607 3.56071C10.8509 3.77049 10.5836 3.91335 10.2926 3.97123C10.0017 4.0291 9.70006 3.9994 9.42597 3.88587C9.15188 3.77234 8.91762 3.58008 8.75279 3.3334C8.58797 3.08673 8.5 2.79672 8.5 2.50005C8.5 2.10222 8.65803 1.72069 8.93934 1.43939C9.22064 1.15808 9.60217 1.00005 10 1.00005ZM3 8.50005C2.70333 8.50005 2.41332 8.41208 2.16664 8.24725C1.91997 8.08243 1.72771 7.84816 1.61418 7.57407C1.50065 7.29998 1.47094 6.99839 1.52882 6.70741C1.5867 6.41644 1.72956 6.14917 1.93934 5.93939C2.14912 5.72961 2.41639 5.58675 2.70736 5.52887C2.99833 5.47099 3.29993 5.5007 3.57402 5.61423C3.84811 5.72776 4.08238 5.92002 4.2472 6.16669C4.41202 6.41337 4.5 6.70338 4.5 7.00005C4.5 7.39787 4.34196 7.7794 4.06066 8.06071C3.77935 8.34201 3.39782 8.50005 3 8.50005ZM10 13C9.70333 13 9.41332 12.9121 9.16664 12.7473C8.91997 12.5824 8.72771 12.3482 8.61418 12.0741C8.50065 11.8 8.47094 11.4984 8.52882 11.2074C8.5867 10.9164 8.72956 10.6492 8.93934 10.4394C9.14912 10.2296 9.41639 10.0867 9.70736 10.0289C9.99833 9.97099 10.2999 10.0007 10.574 10.1142C10.8481 10.2278 11.0824 10.42 11.2472 10.6667C11.412 10.9134 11.5 11.2034 11.5 11.5C11.5 11.8979 11.342 12.2794 11.0607 12.5607C10.7794 12.842 10.3978 13 10 13Z" fill="#252C32"/>
</svg>
